<mxfile compressed="false" host="Electron" modified="2022-04-16T03:23:52.939Z" agent="5.0 (Windows NT 10.0; Win64; x64) AppleWebKit/537.36 (KHTML, like Gecko) draw.io/13.9.9 Chrome/85.0.4183.121 Electron/10.1.5 Safari/537.36" etag="Q3Us384e8h-4oyZkrYyJ" version="13.9.9" type="device">
  <diagram id="Page-1" name="Page-1">
    <mxGraphModel dx="1680" dy="803" grid="1" gridSize="10" guides="1" tooltips="1" connect="1" arrows="1" fold="1" page="1" pageScale="1" pageWidth="827" pageHeight="1169" math="0" shadow="1">
      <root>
        <mxCell id="0" />
        <mxCell id="1" parent="0" />
        <object label="TDien-Office-SW1" id="TDien-Office-SW1">
          <mxCell style="shape=mxgraph.cisco.switches.workgroup_switch;sketch=0;html=1;pointerEvents=1;dashed=0;fillColor=#036897;strokeColor=#ffffff;strokeWidth=2;verticalLabelPosition=bottom;verticalAlign=top;align=center;outlineConnect=0;" parent="1" vertex="1">
            <mxGeometry x="270" y="311" width="120" height="60" as="geometry" />
          </mxCell>
        </object>
        <object label="TDien-R1" id="TDien-R1">
          <mxCell style="shape=mxgraph.cisco.routers.atm_router;html=1;pointerEvents=1;dashed=0;fillColor=#036897;strokeColor=#ffffff;strokeWidth=2;verticalLabelPosition=bottom;verticalAlign=top;align=center;outlineConnect=0;" parent="1" vertex="1">
            <mxGeometry x="270" y="90" width="120" height="60" as="geometry" />
          </mxCell>
        </object>
        <object label="TD-Office-SW03" id="TD-Office-SW03">
          <mxCell style="shape=mxgraph.cisco.switches.workgroup_switch;sketch=0;html=1;pointerEvents=1;dashed=0;fillColor=#036897;strokeColor=#ffffff;strokeWidth=2;verticalLabelPosition=bottom;verticalAlign=top;align=center;outlineConnect=0;" parent="1" vertex="1">
            <mxGeometry x="200" y="511" width="120" height="60" as="geometry" />
          </mxCell>
        </object>
        <object label="TDien-Office-SW2" id="TDien-Office-SW2">
          <mxCell style="shape=mxgraph.cisco.switches.workgroup_switch;sketch=0;html=1;pointerEvents=1;dashed=0;fillColor=#036897;strokeColor=#ffffff;strokeWidth=2;verticalLabelPosition=bottom;verticalAlign=top;align=center;outlineConnect=0;" parent="1" vertex="1">
            <mxGeometry x="688" y="90" width="120" height="60" as="geometry" />
          </mxCell>
        </object>
        <object label="ThaoDien-WLC-3504" id="ThaoDien-WLC-3504">
          <mxCell style="sketch=0;points=[[0.015,0.015,0],[0.985,0.015,0],[0.985,0.985,0],[0.015,0.985,0],[0.25,0,0],[0.5,0,0],[0.75,0,0],[1,0.25,0],[1,0.5,0],[1,0.75,0],[0.75,1,0],[0.5,1,0],[0.25,1,0],[0,0.75,0],[0,0.5,0],[0,0.25,0]];verticalLabelPosition=bottom;html=1;verticalAlign=top;aspect=fixed;align=center;pointerEvents=1;shape=mxgraph.cisco19.rect;prIcon=dual_mode_access_point;fillColor=#FAFAFA;strokeColor=#005073;" parent="1" vertex="1">
            <mxGeometry x="990" y="100" width="120" height="60" as="geometry" />
          </mxCell>
        </object>
        <object label="TDien-Elec-SW2" id="TDien-Elec-SW2">
          <mxCell style="shape=mxgraph.cisco.switches.workgroup_switch;sketch=0;html=1;pointerEvents=1;dashed=0;fillColor=#036897;strokeColor=#ffffff;strokeWidth=2;verticalLabelPosition=bottom;verticalAlign=top;align=center;outlineConnect=0;" parent="1" vertex="1">
            <mxGeometry x="170" y="790" width="120" height="60" as="geometry" />
          </mxCell>
        </object>
        <object label="TDien-Elec-SW1" id="TDien-Elec-SW1">
          <mxCell style="shape=mxgraph.cisco.switches.workgroup_switch;sketch=0;html=1;pointerEvents=1;dashed=0;fillColor=#036897;strokeColor=#ffffff;strokeWidth=2;verticalLabelPosition=bottom;verticalAlign=top;align=center;outlineConnect=0;" parent="1" vertex="1">
            <mxGeometry x="158" y="950" width="120" height="60" as="geometry" />
          </mxCell>
        </object>
        <object label="TD-B1-A19" id="TD-B1-A19">
          <mxCell style="points=[[0.03,0.36,0],[0.18,0,0],[0.5,0.34,0],[0.82,0,0],[0.97,0.36,0],[1,0.67,0],[0.975,0.975,0],[0.5,1,0],[0.025,0.975,0],[0,0.67,0]];verticalLabelPosition=bottom;sketch=0;html=1;verticalAlign=top;aspect=fixed;align=center;pointerEvents=1;shape=mxgraph.cisco19.wireless_access_point;fillColor=#005073;strokeColor=none;" parent="1" vertex="1">
            <mxGeometry x="438" y="931" width="120" height="60" as="geometry" />
          </mxCell>
        </object>
        <object label="TD-B1-A14" id="TD-B1-A14">
          <mxCell style="points=[[0.03,0.36,0],[0.18,0,0],[0.5,0.34,0],[0.82,0,0],[0.97,0.36,0],[1,0.67,0],[0.975,0.975,0],[0.5,1,0],[0.025,0.975,0],[0,0.67,0]];verticalLabelPosition=bottom;sketch=0;html=1;verticalAlign=top;aspect=fixed;align=center;pointerEvents=1;shape=mxgraph.cisco19.wireless_access_point;fillColor=#005073;strokeColor=none;" parent="1" vertex="1">
            <mxGeometry x="598" y="911" width="120" height="60" as="geometry" />
          </mxCell>
        </object>
        <object label="TD-B1-A15" id="TD-B1-A15">
          <mxCell style="points=[[0.03,0.36,0],[0.18,0,0],[0.5,0.34,0],[0.82,0,0],[0.97,0.36,0],[1,0.67,0],[0.975,0.975,0],[0.5,1,0],[0.025,0.975,0],[0,0.67,0]];verticalLabelPosition=bottom;sketch=0;html=1;verticalAlign=top;aspect=fixed;align=center;pointerEvents=1;shape=mxgraph.cisco19.wireless_access_point;fillColor=#005073;strokeColor=none;" parent="1" vertex="1">
            <mxGeometry x="408" y="771" width="120" height="60" as="geometry" />
          </mxCell>
        </object>
        <object label="TD-B1-A16" id="TD-B1-A16">
          <mxCell style="points=[[0.03,0.36,0],[0.18,0,0],[0.5,0.34,0],[0.82,0,0],[0.97,0.36,0],[1,0.67,0],[0.975,0.975,0],[0.5,1,0],[0.025,0.975,0],[0,0.67,0]];verticalLabelPosition=bottom;sketch=0;html=1;verticalAlign=top;aspect=fixed;align=center;pointerEvents=1;shape=mxgraph.cisco19.wireless_access_point;fillColor=#005073;strokeColor=none;" parent="1" vertex="1">
            <mxGeometry x="248" y="711" width="120" height="60" as="geometry" />
          </mxCell>
        </object>
        <object label="TD-B1-A17" id="TD-B1-A17">
          <mxCell style="points=[[0.03,0.36,0],[0.18,0,0],[0.5,0.34,0],[0.82,0,0],[0.97,0.36,0],[1,0.67,0],[0.975,0.975,0],[0.5,1,0],[0.025,0.975,0],[0,0.67,0]];verticalLabelPosition=bottom;sketch=0;html=1;verticalAlign=top;aspect=fixed;align=center;pointerEvents=1;shape=mxgraph.cisco19.wireless_access_point;fillColor=#005073;strokeColor=none;" parent="1" vertex="1">
            <mxGeometry x="278" y="871" width="120" height="60" as="geometry" />
          </mxCell>
        </object>
        <object label="TD-B1-B03" id="TD-B1-B03">
          <mxCell style="points=[[0.03,0.36,0],[0.18,0,0],[0.5,0.34,0],[0.82,0,0],[0.97,0.36,0],[1,0.67,0],[0.975,0.975,0],[0.5,1,0],[0.025,0.975,0],[0,0.67,0]];verticalLabelPosition=bottom;sketch=0;html=1;verticalAlign=top;aspect=fixed;align=center;pointerEvents=1;shape=mxgraph.cisco19.wireless_access_point;fillColor=#005073;strokeColor=none;" parent="1" vertex="1">
            <mxGeometry x="438" y="571" width="120" height="60" as="geometry" />
          </mxCell>
        </object>
        <object label="TD-B1-A20" id="TD-B1-A20">
          <mxCell style="points=[[0.03,0.36,0],[0.18,0,0],[0.5,0.34,0],[0.82,0,0],[0.97,0.36,0],[1,0.67,0],[0.975,0.975,0],[0.5,1,0],[0.025,0.975,0],[0,0.67,0]];verticalLabelPosition=bottom;sketch=0;html=1;verticalAlign=top;aspect=fixed;align=center;pointerEvents=1;shape=mxgraph.cisco19.wireless_access_point;fillColor=#005073;strokeColor=none;" parent="1" vertex="1">
            <mxGeometry x="358" y="581" width="120" height="60" as="geometry" />
          </mxCell>
        </object>
        <object label="AP003a.7dd4.6d00" id="AP003a.7dd4.6d00">
          <mxCell style="points=[[0.03,0.36,0],[0.18,0,0],[0.5,0.34,0],[0.82,0,0],[0.97,0.36,0],[1,0.67,0],[0.975,0.975,0],[0.5,1,0],[0.025,0.975,0],[0,0.67,0]];verticalLabelPosition=bottom;sketch=0;html=1;verticalAlign=top;aspect=fixed;align=center;pointerEvents=1;shape=mxgraph.cisco19.wireless_access_point;fillColor=#005073;strokeColor=none;" parent="1" vertex="1">
            <mxGeometry x="588" y="511" width="120" height="60" as="geometry" />
          </mxCell>
        </object>
        <object label="AP0062.ec20.6110" id="AP0062.ec20.6110">
          <mxCell style="points=[[0.03,0.36,0],[0.18,0,0],[0.5,0.34,0],[0.82,0,0],[0.97,0.36,0],[1,0.67,0],[0.975,0.975,0],[0.5,1,0],[0.025,0.975,0],[0,0.67,0]];verticalLabelPosition=bottom;sketch=0;html=1;verticalAlign=top;aspect=fixed;align=center;pointerEvents=1;shape=mxgraph.cisco19.wireless_access_point;fillColor=#005073;strokeColor=none;" parent="1" vertex="1">
            <mxGeometry x="768" y="371" width="120" height="60" as="geometry" />
          </mxCell>
        </object>
        <object label="TD-B1-A13" id="TD-B1-A13">
          <mxCell style="points=[[0.03,0.36,0],[0.18,0,0],[0.5,0.34,0],[0.82,0,0],[0.97,0.36,0],[1,0.67,0],[0.975,0.975,0],[0.5,1,0],[0.025,0.975,0],[0,0.67,0]];verticalLabelPosition=bottom;sketch=0;html=1;verticalAlign=top;aspect=fixed;align=center;pointerEvents=1;shape=mxgraph.cisco19.wireless_access_point;fillColor=#005073;strokeColor=none;" parent="1" vertex="1">
            <mxGeometry x="928" y="341" width="120" height="60" as="geometry" />
          </mxCell>
        </object>
        <object label="TD-B1-A03" id="TD-B1-A03">
          <mxCell style="points=[[0.03,0.36,0],[0.18,0,0],[0.5,0.34,0],[0.82,0,0],[0.97,0.36,0],[1,0.67,0],[0.975,0.975,0],[0.5,1,0],[0.025,0.975,0],[0,0.67,0]];verticalLabelPosition=bottom;sketch=0;html=1;verticalAlign=top;aspect=fixed;align=center;pointerEvents=1;shape=mxgraph.cisco19.wireless_access_point;fillColor=#005073;strokeColor=none;" parent="1" vertex="1">
            <mxGeometry x="808" y="391" width="120" height="60" as="geometry" />
          </mxCell>
        </object>
        <object label="TD-B1-A12" id="TD-B1-A12">
          <mxCell style="points=[[0.03,0.36,0],[0.18,0,0],[0.5,0.34,0],[0.82,0,0],[0.97,0.36,0],[1,0.67,0],[0.975,0.975,0],[0.5,1,0],[0.025,0.975,0],[0,0.67,0]];verticalLabelPosition=bottom;sketch=0;html=1;verticalAlign=top;aspect=fixed;align=center;pointerEvents=1;shape=mxgraph.cisco19.wireless_access_point;fillColor=#005073;strokeColor=none;" parent="1" vertex="1">
            <mxGeometry x="648" y="671" width="120" height="60" as="geometry" />
          </mxCell>
        </object>
        <object label="TD-B1-A11" id="TD-B1-A11">
          <mxCell style="points=[[0.03,0.36,0],[0.18,0,0],[0.5,0.34,0],[0.82,0,0],[0.97,0.36,0],[1,0.67,0],[0.975,0.975,0],[0.5,1,0],[0.025,0.975,0],[0,0.67,0]];verticalLabelPosition=bottom;sketch=0;html=1;verticalAlign=top;aspect=fixed;align=center;pointerEvents=1;shape=mxgraph.cisco19.wireless_access_point;fillColor=#005073;strokeColor=none;" parent="1" vertex="1">
            <mxGeometry x="628" y="671" width="120" height="60" as="geometry" />
          </mxCell>
        </object>
        <object label="TD-B1-A10" id="TD-B1-A10">
          <mxCell style="points=[[0.03,0.36,0],[0.18,0,0],[0.5,0.34,0],[0.82,0,0],[0.97,0.36,0],[1,0.67,0],[0.975,0.975,0],[0.5,1,0],[0.025,0.975,0],[0,0.67,0]];verticalLabelPosition=bottom;sketch=0;html=1;verticalAlign=top;aspect=fixed;align=center;pointerEvents=1;shape=mxgraph.cisco19.wireless_access_point;fillColor=#005073;strokeColor=none;" parent="1" vertex="1">
            <mxGeometry x="678" y="501" width="120" height="60" as="geometry" />
          </mxCell>
        </object>
        <object label="TD-B1-A01" id="TD-B1-A01">
          <mxCell style="points=[[0.03,0.36,0],[0.18,0,0],[0.5,0.34,0],[0.82,0,0],[0.97,0.36,0],[1,0.67,0],[0.975,0.975,0],[0.5,1,0],[0.025,0.975,0],[0,0.67,0]];verticalLabelPosition=bottom;sketch=0;html=1;verticalAlign=top;aspect=fixed;align=center;pointerEvents=1;shape=mxgraph.cisco19.wireless_access_point;fillColor=#005073;strokeColor=none;" parent="1" vertex="1">
            <mxGeometry x="808" y="641" width="120" height="60" as="geometry" />
          </mxCell>
        </object>
        <object label="TD-B1-A06" id="TD-B1-A06">
          <mxCell style="points=[[0.03,0.36,0],[0.18,0,0],[0.5,0.34,0],[0.82,0,0],[0.97,0.36,0],[1,0.67,0],[0.975,0.975,0],[0.5,1,0],[0.025,0.975,0],[0,0.67,0]];verticalLabelPosition=bottom;sketch=0;html=1;verticalAlign=top;aspect=fixed;align=center;pointerEvents=1;shape=mxgraph.cisco19.wireless_access_point;fillColor=#005073;strokeColor=none;" parent="1" vertex="1">
            <mxGeometry x="748" y="801" width="120" height="60" as="geometry" />
          </mxCell>
        </object>
        <object label="TD-B1-A07" id="TD-B1-A07">
          <mxCell style="points=[[0.03,0.36,0],[0.18,0,0],[0.5,0.34,0],[0.82,0,0],[0.97,0.36,0],[1,0.67,0],[0.975,0.975,0],[0.5,1,0],[0.025,0.975,0],[0,0.67,0]];verticalLabelPosition=bottom;sketch=0;html=1;verticalAlign=top;aspect=fixed;align=center;pointerEvents=1;shape=mxgraph.cisco19.wireless_access_point;fillColor=#005073;strokeColor=none;" parent="1" vertex="1">
            <mxGeometry x="808" y="701" width="120" height="60" as="geometry" />
          </mxCell>
        </object>
        <object label="TD-B1-A04" id="TD-B1-A04">
          <mxCell style="points=[[0.03,0.36,0],[0.18,0,0],[0.5,0.34,0],[0.82,0,0],[0.97,0.36,0],[1,0.67,0],[0.975,0.975,0],[0.5,1,0],[0.025,0.975,0],[0,0.67,0]];verticalLabelPosition=bottom;sketch=0;html=1;verticalAlign=top;aspect=fixed;align=center;pointerEvents=1;shape=mxgraph.cisco19.wireless_access_point;fillColor=#005073;strokeColor=none;" parent="1" vertex="1">
            <mxGeometry x="978" y="501" width="120" height="60" as="geometry" />
          </mxCell>
        </object>
        <object label="TD-B1-A05" id="TD-B1-A05">
          <mxCell style="points=[[0.03,0.36,0],[0.18,0,0],[0.5,0.34,0],[0.82,0,0],[0.97,0.36,0],[1,0.67,0],[0.975,0.975,0],[0.5,1,0],[0.025,0.975,0],[0,0.67,0]];verticalLabelPosition=bottom;sketch=0;html=1;verticalAlign=top;aspect=fixed;align=center;pointerEvents=1;shape=mxgraph.cisco19.wireless_access_point;fillColor=#005073;strokeColor=none;" parent="1" vertex="1">
            <mxGeometry x="918" y="511" width="120" height="60" as="geometry" />
          </mxCell>
        </object>
        <object label="TD-B1-A08" id="TD-B1-A08">
          <mxCell style="points=[[0.03,0.36,0],[0.18,0,0],[0.5,0.34,0],[0.82,0,0],[0.97,0.36,0],[1,0.67,0],[0.975,0.975,0],[0.5,1,0],[0.025,0.975,0],[0,0.67,0]];verticalLabelPosition=bottom;sketch=0;html=1;verticalAlign=top;aspect=fixed;align=center;pointerEvents=1;shape=mxgraph.cisco19.wireless_access_point;fillColor=#005073;strokeColor=none;" parent="1" vertex="1">
            <mxGeometry x="538" y="411" width="120" height="60" as="geometry" />
          </mxCell>
        </object>
        <object label="TD-B1-A09" id="TD-B1-A09">
          <mxCell style="points=[[0.03,0.36,0],[0.18,0,0],[0.5,0.34,0],[0.82,0,0],[0.97,0.36,0],[1,0.67,0],[0.975,0.975,0],[0.5,1,0],[0.025,0.975,0],[0,0.67,0]];verticalLabelPosition=bottom;sketch=0;html=1;verticalAlign=top;aspect=fixed;align=center;pointerEvents=1;shape=mxgraph.cisco19.wireless_access_point;fillColor=#005073;strokeColor=none;" parent="1" vertex="1">
            <mxGeometry x="978" y="661" width="120" height="60" as="geometry" />
          </mxCell>
        </object>
        <object label="AP0062.ec19.6bac" id="AP0062.ec19.6bac">
          <mxCell style="points=[[0.03,0.36,0],[0.18,0,0],[0.5,0.34,0],[0.82,0,0],[0.97,0.36,0],[1,0.67,0],[0.975,0.975,0],[0.5,1,0],[0.025,0.975,0],[0,0.67,0]];verticalLabelPosition=bottom;sketch=0;html=1;verticalAlign=top;aspect=fixed;align=center;pointerEvents=1;shape=mxgraph.cisco19.wireless_access_point;fillColor=#005073;strokeColor=none;" parent="1" vertex="1">
            <mxGeometry x="908" y="771" width="120" height="60" as="geometry" />
          </mxCell>
        </object>
        <object label="Gig 0/0/1 to Fas 0/43" id="ce6eaff79254a94e84e75c307260e7ac">
          <mxCell style="endArrow=none;html=1;edgeStyle=orthogonalEdgeStyle;noEdgeStyle=1;" parent="1" source="TDien-R1" target="TDien-Office-SW1" edge="1">
            <mxGeometry relative="1" as="geometry" />
          </mxCell>
        </object>
        <object label="Fas 0/48 to Fas 0/48" id="e225997a3a8d16f4d68ca73c09d086d9">
          <mxCell style="endArrow=none;html=1;edgeStyle=orthogonalEdgeStyle;noEdgeStyle=1;" parent="1" source="TDien-Office-SW2" target="TDien-Office-SW1" edge="1">
            <mxGeometry relative="1" as="geometry" />
          </mxCell>
        </object>
        <object label="Fas 0/47 to Fas 0/47" id="ae0f6b1b138635f5377c4a868d76d43e">
          <mxCell style="endArrow=none;html=1;edgeStyle=orthogonalEdgeStyle;noEdgeStyle=1;" parent="1" source="TDien-Office-SW2" target="TDien-Office-SW1" edge="1">
            <mxGeometry relative="1" as="geometry" />
          </mxCell>
        </object>
        <object label="Fas 0/46 to Gig 0/0/1" id="cb3f0773f395b571b01b028d5964ef35">
          <mxCell style="endArrow=none;html=1;edgeStyle=orthogonalEdgeStyle;noEdgeStyle=1;" parent="1" source="TDien-Office-SW2" target="ThaoDien-WLC-3504" edge="1">
            <mxGeometry relative="1" as="geometry" />
          </mxCell>
        </object>
        <object label="Fas 0/46 to Gig 1/0/24" id="23d4bc5795e8fb4222200caf66ccf8ab">
          <mxCell style="endArrow=none;html=1;edgeStyle=orthogonalEdgeStyle;noEdgeStyle=1;" parent="1" source="TD-Office-SW03" target="TDien-Office-SW1" edge="1">
            <mxGeometry relative="1" as="geometry" />
          </mxCell>
        </object>
        <object label="Fas 0/45 to Gig 1/0/23" id="e347e501987fdf76f5fb465f05d866d2">
          <mxCell style="endArrow=none;html=1;edgeStyle=orthogonalEdgeStyle;noEdgeStyle=1;" parent="1" source="TD-Office-SW03" target="TDien-Office-SW1" edge="1">
            <mxGeometry relative="1" as="geometry" />
          </mxCell>
        </object>
        <object label="Gig 1/0/15 to Gig 0" id="0264fff7dc657fbd9231f46c345eb97b">
          <mxCell style="endArrow=none;html=1;edgeStyle=orthogonalEdgeStyle;strokeColor=#0000FF;noEdgeStyle=1;" parent="1" source="TD-Office-SW03" target="AP003a.7dd4.6d00" edge="1">
            <mxGeometry relative="1" as="geometry" />
          </mxCell>
        </object>
        <object label="Gig 1/0/14 to Gig 0" id="1a6fa004122591ad9244e45794eecfb6">
          <mxCell style="endArrow=none;html=1;edgeStyle=orthogonalEdgeStyle;strokeColor=#0000FF;noEdgeStyle=1;" parent="1" source="TD-Office-SW03" target="AP0062.ec20.6110" edge="1">
            <mxGeometry relative="1" as="geometry" />
          </mxCell>
        </object>
        <object label="Gig 1/0/13 to Gig 0" id="efbdeab37713ec1db79625f1041bdabe">
          <mxCell style="endArrow=none;html=1;edgeStyle=orthogonalEdgeStyle;strokeColor=#0000FF;noEdgeStyle=1;" parent="1" source="TD-Office-SW03" target="TD-B1-A13" edge="1">
            <mxGeometry relative="1" as="geometry" />
          </mxCell>
        </object>
        <object label="Gig 1/0/3 to Gig 0" id="b4c6a0e0d8c7b60776c939bc982cc829">
          <mxCell style="endArrow=none;html=1;edgeStyle=orthogonalEdgeStyle;strokeColor=#0000FF;noEdgeStyle=1;" parent="1" source="TD-Office-SW03" target="TD-B1-A03" edge="1">
            <mxGeometry relative="1" as="geometry" />
          </mxCell>
        </object>
        <object label="Gig 1/0/12 to Gig 0" id="b4837cbbfba209fb63fc18cf10865695">
          <mxCell style="endArrow=none;html=1;edgeStyle=orthogonalEdgeStyle;strokeColor=#0000FF;noEdgeStyle=1;" parent="1" source="TD-Office-SW03" target="TD-B1-A12" edge="1">
            <mxGeometry relative="1" as="geometry" />
          </mxCell>
        </object>
        <object label="Gig 1/0/11 to Gig 0" id="ac94591d307cd24c6688308fe6d3829d">
          <mxCell style="endArrow=none;html=1;edgeStyle=orthogonalEdgeStyle;strokeColor=#0000FF;noEdgeStyle=1;" parent="1" source="TD-Office-SW03" target="TD-B1-A11" edge="1">
            <mxGeometry relative="1" as="geometry" />
          </mxCell>
        </object>
        <object label="Gig 1/0/10 to Gig 0" id="ce2b78b703f0b6912769fd995a6637b4">
          <mxCell style="endArrow=none;html=1;edgeStyle=orthogonalEdgeStyle;strokeColor=#0000FF;noEdgeStyle=1;" parent="1" source="TD-Office-SW03" target="TD-B1-A10" edge="1">
            <mxGeometry relative="1" as="geometry" />
          </mxCell>
        </object>
        <object label="Gig 1/0/1 to Gig 0" id="cdd8a2538e457f8a7a2fd70ceb6530ca">
          <mxCell style="endArrow=none;html=1;edgeStyle=orthogonalEdgeStyle;strokeColor=#0000FF;noEdgeStyle=1;" parent="1" source="TD-Office-SW03" target="TD-B1-A01" edge="1">
            <mxGeometry relative="1" as="geometry" />
          </mxCell>
        </object>
        <object label="Gig 1/0/6 to Gig 0" id="d124494d77ed2af6a4db1e91b22955ec">
          <mxCell style="endArrow=none;html=1;edgeStyle=orthogonalEdgeStyle;strokeColor=#0000FF;noEdgeStyle=1;" parent="1" source="TD-Office-SW03" target="TD-B1-A06" edge="1">
            <mxGeometry relative="1" as="geometry" />
          </mxCell>
        </object>
        <object label="Gig 1/0/7 to Gig 0" id="191b9c51878f67695624394f789a7023">
          <mxCell style="endArrow=none;html=1;edgeStyle=orthogonalEdgeStyle;strokeColor=#0000FF;noEdgeStyle=1;" parent="1" source="TD-Office-SW03" target="TD-B1-A07" edge="1">
            <mxGeometry relative="1" as="geometry" />
          </mxCell>
        </object>
        <object label="Gig 1/0/4 to Gig 0" id="1bd59a88cab335f614592cc302862efa">
          <mxCell style="endArrow=none;html=1;edgeStyle=orthogonalEdgeStyle;strokeColor=#0000FF;noEdgeStyle=1;" parent="1" source="TD-Office-SW03" target="TD-B1-A04" edge="1">
            <mxGeometry relative="1" as="geometry" />
          </mxCell>
        </object>
        <object label="Gig 1/0/5 to Gig 0" id="be2819853694c5bac64685118e88347a">
          <mxCell style="endArrow=none;html=1;edgeStyle=orthogonalEdgeStyle;strokeColor=#0000FF;noEdgeStyle=1;" parent="1" source="TD-Office-SW03" target="TD-B1-A05" edge="1">
            <mxGeometry relative="1" as="geometry" />
          </mxCell>
        </object>
        <object label="Gig 1/0/8 to Gig 0" id="1a8943338ffaa2e16b9979a9d2197332">
          <mxCell style="endArrow=none;html=1;edgeStyle=orthogonalEdgeStyle;strokeColor=#0000FF;noEdgeStyle=1;" parent="1" source="TD-Office-SW03" target="TD-B1-A08" edge="1">
            <mxGeometry relative="1" as="geometry" />
          </mxCell>
        </object>
        <object label="Gig 1/0/9 to Gig 0" id="99aa744544642ad5981b896ae7f258d4">
          <mxCell style="endArrow=none;html=1;edgeStyle=orthogonalEdgeStyle;strokeColor=#0000FF;noEdgeStyle=1;" parent="1" source="TD-Office-SW03" target="TD-B1-A09" edge="1">
            <mxGeometry relative="1" as="geometry" />
          </mxCell>
        </object>
        <object label="Gig 1/0/25 to Gig 1/0/25" id="525c37459473531eab89d4568ba48205">
          <mxCell style="endArrow=none;html=1;edgeStyle=orthogonalEdgeStyle;noEdgeStyle=1;" parent="1" source="TD-Office-SW03" target="TDien-Elec-SW2" edge="1">
            <mxGeometry relative="1" as="geometry" />
          </mxCell>
        </object>
        <object label="Gig 1/0/2 to Gig 0" id="942e30f8b6a93f4ec9e1ddc0b88eb92b">
          <mxCell style="endArrow=none;html=1;edgeStyle=orthogonalEdgeStyle;strokeColor=#0000FF;noEdgeStyle=1;" parent="1" source="TD-Office-SW03" target="AP0062.ec19.6bac" edge="1">
            <mxGeometry relative="1" as="geometry" />
          </mxCell>
        </object>
        <object label="Fas 0/48 to Gig 1/0/24" id="277859cd1c7200373f406ff612d8c4c9">
          <mxCell style="endArrow=none;html=1;edgeStyle=orthogonalEdgeStyle;strokeColor=#0000FF;noEdgeStyle=1;" parent="1" source="TDien-Elec-SW1" target="TDien-Elec-SW2" edge="1">
            <mxGeometry relative="1" as="geometry" />
          </mxCell>
        </object>
        <object label="Fas 0/47 to Gig 1/0/23" id="f436b1f6ca1c70c0edbe953545245771">
          <mxCell style="endArrow=none;html=1;edgeStyle=orthogonalEdgeStyle;strokeColor=#0000FF;noEdgeStyle=1;" parent="1" source="TDien-Elec-SW1" target="TDien-Elec-SW2" edge="1">
            <mxGeometry relative="1" as="geometry" />
          </mxCell>
        </object>
        <object label="Gig 1/0/9 to Gig 0" id="680c76afaceb24f8c6aa34ff931c5095">
          <mxCell style="endArrow=none;html=1;edgeStyle=orthogonalEdgeStyle;strokeColor=#0000FF;noEdgeStyle=1;" parent="1" source="TDien-Elec-SW2" target="TD-B1-A19" edge="1">
            <mxGeometry relative="1" as="geometry" />
          </mxCell>
        </object>
        <object label="Gig 1/0/5 to Gig 0" id="d9e70a63edd6f4722c0f5c158472a365">
          <mxCell style="endArrow=none;html=1;edgeStyle=orthogonalEdgeStyle;strokeColor=#0000FF;noEdgeStyle=1;" parent="1" source="TDien-Elec-SW2" target="TD-B1-A14" edge="1">
            <mxGeometry relative="1" as="geometry" />
          </mxCell>
        </object>
        <object label="Gig 1/0/1 to Gig 0" id="14d715ff89dae13f9eeb80ab3866b938">
          <mxCell style="endArrow=none;html=1;edgeStyle=orthogonalEdgeStyle;strokeColor=#0000FF;noEdgeStyle=1;" parent="1" source="TDien-Elec-SW2" target="TD-B1-A15" edge="1">
            <mxGeometry relative="1" as="geometry" />
          </mxCell>
        </object>
        <object label="Gig 1/0/2 to Gig 0" id="6ada679210e85a0edbf34857283ec9ef">
          <mxCell style="endArrow=none;html=1;edgeStyle=orthogonalEdgeStyle;strokeColor=#0000FF;noEdgeStyle=1;" parent="1" source="TDien-Elec-SW2" target="TD-B1-A16" edge="1">
            <mxGeometry relative="1" as="geometry" />
          </mxCell>
        </object>
        <object label="Gig 1/0/8 to Gig 0" id="7fe9ed3af37fbc3ca51abe8a3866e33a">
          <mxCell style="endArrow=none;html=1;edgeStyle=orthogonalEdgeStyle;strokeColor=#0000FF;noEdgeStyle=1;" parent="1" source="TDien-Elec-SW2" target="TD-B1-A17" edge="1">
            <mxGeometry relative="1" as="geometry" />
          </mxCell>
        </object>
        <object label="Gig 1/0/3 to Gig 0" id="c2375b6e0b9c2a200594560393e17305">
          <mxCell style="endArrow=none;html=1;edgeStyle=orthogonalEdgeStyle;strokeColor=#0000FF;noEdgeStyle=1;" parent="1" source="TDien-Elec-SW2" target="TD-B1-B03" edge="1">
            <mxGeometry relative="1" as="geometry" />
          </mxCell>
        </object>
        <object label="Gig 1/0/10 to Gig 0" id="8647aca8fb52579137b653b72d6d765d">
          <mxCell style="endArrow=none;html=1;edgeStyle=orthogonalEdgeStyle;strokeColor=#0000FF;noEdgeStyle=1;" parent="1" source="TDien-Elec-SW2" target="TD-B1-A20" edge="1">
            <mxGeometry relative="1" as="geometry" />
          </mxCell>
        </object>
      </root>
    </mxGraphModel>
  </diagram>
</mxfile>
